Coordinates
version=1
nRows=11
nColumns=40
inDegrees=yes

Units are S.I. units (second, meters, Newtons, ...)
Angles are in degrees.

endheader
time	pelvis_tilt	pelvis_list	pelvis_rotation	pelvis_tx	pelvis_ty	pelvis_tz	hip_flexion_r	hip_adduction_r	hip_rotation_r	knee_angle_r	knee_angle_r_beta	ankle_angle_r	subtalar_angle_r	mtp_angle_r	hip_flexion_l	hip_adduction_l	hip_rotation_l	knee_angle_l	knee_angle_l_beta	ankle_angle_l	subtalar_angle_l	mtp_angle_l	lumbar_extension	lumbar_bending	lumbar_rotation	arm_flex_r	arm_add_r	arm_rot_r	elbow_flex_r	pro_sup_r	wrist_flex_r	wrist_dev_r	arm_flex_l	arm_add_l	arm_rot_l	elbow_flex_l	pro_sup_l	wrist_flex_l	wrist_dev_l
     49.11500000	     -5.87582428	     -3.77245242	      2.73579873	      0.99588796	      0.92298230	      0.43839557	      2.78459713	     -1.47280022	    -15.27805439	     32.02525354	     32.02525354	     11.64145387	     -1.88428561	    -15.69352675	     26.57584368	     -3.63363253	     -6.71035788	     23.93296287	     23.93296287	      7.00185509	    -16.41004227	      5.62826470	     -5.88368214	      4.64340507	      4.40205863	     26.74816773	    -15.48744005	    -11.33571272	     75.53824326	     45.05054032	      0.00000000	      0.00000000	     -3.47472041	     -7.78901439	      6.97217175	     25.48073370	     44.87189381	      0.00000000	      0.00000000
     49.12685714	     -5.73536409	     -3.68576823	      2.52444570	      0.99658457	      0.92409831	      0.43653524	      4.36311104	     -2.26035440	    -14.66808792	     35.88791729	     35.88791729	     10.04077050	     -3.40385113	    -16.00022076	     25.76699811	     -3.58287481	     -7.13418354	     23.85622233	     23.85622233	      7.40787656	    -16.07619571	      5.31144402	     -6.07709146	      4.60848995	      4.32971518	     24.70129766	    -15.35825751	    -11.15115479	     73.81599307	     45.09531755	      0.00000000	      0.00000000	     -2.23190269	     -7.98340757	      6.91507503	     25.96993135	     44.90672015	      0.00000000	      0.00000000
     49.13871429	     -5.76193099	     -3.68280581	      2.23385724	      0.99707026	      0.92474249	      0.43503962	      6.36619139	     -2.79608859	    -13.65505831	     39.95122505	     39.95122505	      8.24202266	     -5.67389346	    -16.03017288	     25.12080783	     -3.64764250	     -7.60785447	     23.72026809	     23.72026809	      7.87414463	    -15.71239194	      4.82900178	     -5.97678321	      4.61004849	      4.47611515	     22.72058543	    -15.39819562	    -11.03704276	     71.24653677	     45.17266620	      0.00000000	      0.00000000	     -0.90699708	     -8.17569119	      6.86277282	     26.49697748	     44.94432444	      0.00000000	      0.00000000
     49.15057143	     -5.63499206	     -3.61109204	      1.98162342	      0.99744607	      0.92543567	      0.43357123	      8.30045238	     -3.38895943	    -12.72294604	     44.05232923	     44.05232923	      6.43508516	     -7.57921321	    -15.68057585	     24.35910249	     -3.62737386	     -8.01251186	     23.66979069	     23.66979069	      8.31091064	    -15.40097740	      4.38507982	     -6.14941430	      4.57300615	      4.36893911	     20.83859192	    -15.18203665	    -10.86046180	     68.99684802	     45.23606220	      0.00000000	      0.00000000	      0.41004892	     -8.46545576	      6.80097103	     27.04143029	     44.98069175	      0.00000000	      0.00000000
     49.16242857	     -5.49923774	     -3.69583065	      1.79010908	      0.99767221	      0.92602553	      0.43238649	     10.36470926	     -3.63374627	    -11.68678569	     48.22292152	     48.22292152	      5.26615354	     -9.33449358	    -13.00875692	     23.63749897	     -3.79393824	     -8.43119738	     23.63854618	     23.63854618	      8.49695839	    -15.05067926	      3.31957586	     -6.18558478	      4.64769184	      3.74789765	     20.17673941	    -14.44052655	    -10.63728262	     63.73904094	     45.40992334	      0.00000000	      0.00000000	      1.46549199	     -8.87621598	      6.77290572	     27.76157502	     45.02842389	      0.00000000	      0.00000000
     49.17428571	     -5.37099937	     -3.67518472	      1.59374162	      0.99769357	      0.92646445	      0.43117531	     12.55511854	     -4.00552187	    -10.75282430	     52.43588962	     52.43588962	      4.61657442	    -10.35623207	     -9.36327271	     22.93609086	     -3.79080291	     -8.67854130	     23.61405124	     23.61405124	      8.80177021	    -14.95992552	      2.82988456	     -6.34560304	      4.66204136	      3.46156757	     18.70207496	    -14.18373458	    -10.13022631	     60.51608889	     45.49584043	      0.00000000	      0.00000000	      2.57223666	     -9.30308952	      6.43401400	     29.06454644	     45.13305637	      0.00000000	      0.00000000
     49.18614286	     -5.18470731	     -3.56550883	      1.44980693	      0.99760616	      0.92692335	      0.42997011	     14.58087117	     -4.42798651	     -9.92372392	     56.18442113	     56.18442113	      3.13223228	    -11.73680107	     -8.84124506	     22.18697041	     -3.66523130	     -8.87513970	     23.59936064	     23.59936064	      9.18237818	    -14.90407591	      2.65280189	     -6.63634601	      4.59182272	      3.28807218	     16.56828539	    -13.94597421	     -9.90607291	     59.00055342	     45.52914941	      0.00000000	      0.00000000	      4.05022280	     -9.72051999	      6.27989195	     29.78316174	     45.18166674	      0.00000000	      0.00000000
     49.19800000	     -5.08562630	     -3.71664384	      1.27820181	      0.99733169	      0.92735857	      0.42906168	     16.74899520	     -4.31636842	     -8.93048181	     59.70285917	     59.70285917	      2.26375160	    -13.15765007	     -6.71808354	     21.56963074	     -3.81941158	     -8.92483649	     23.60090110	     23.60090110	      9.56389162	    -14.89395478	      2.44427265	     -6.77123720	      4.80649633	      3.75768381	     14.60438232	    -14.12939270	     -9.85106651	     55.53083124	     45.63837009	      0.00000000	      0.00000000	      5.71252943	     -9.92180833	      6.09535280	     30.95767982	     45.24186585	      0.00000000	      0.00000000
     49.20985714	     -4.94618940	     -3.66589199	      1.13563376	      0.99697886	      0.92787969	      0.42809466	     18.95377528	     -4.50339495	     -8.10031681	     63.22338931	     63.22338931	      2.74807910	    -13.32809045	     -2.03509970	     20.84086732	     -3.73924094	     -9.06009169	     23.47649421	     23.47649421	      9.91524467	    -14.86957917	      2.29480478	     -6.90509823	      4.79893488	      2.93156483	     14.22579240	    -13.22032533	     -9.99826479	     50.11982930	     45.82379768	      0.00000000	      0.00000000	      6.66022383	    -10.58400561	      5.86183893	     32.22043889	     45.31027417	      0.00000000	      0.00000000
     49.22171429	     -4.84025822	     -3.72575518	      0.97357098	      0.99655460	      0.92845617	      0.42723596	     20.98815333	     -4.46733427	     -7.34121738	     66.01454668	     66.01454668	      2.08403758	    -14.30229013	     -1.45302581	     20.13278747	     -3.75193522	     -9.08419455	     23.29752779	     23.29752779	     10.27282169	    -14.99596027	      2.25698370	     -7.10495394	      4.97730083	      3.28434759	     12.00759745	    -13.33193341	     -9.84451723	     47.93589762	     45.88080826	      0.00000000	      0.00000000	      8.30520983	    -10.80452942	      5.58961818	     33.43932060	     45.37828119	      0.00000000	      0.00000000
     49.23357143	     -4.67454494	     -3.68932796	      0.83987027	      0.99607316	      0.92918515	      0.42645797	     22.90549345	     -4.47205241	     -6.56722809	     68.44227349	     68.44227349	      1.62701933	    -15.07310637	     -1.04386326	     19.34747378	     -3.67039641	     -9.14512943	     23.09420199	     23.09420199	     10.57722140	    -14.98217981	      2.23202973	     -7.37768239	      4.99751845	      3.21282263	     10.04538394	    -13.08043208	     -9.73916566	     45.80948157	     45.94027286	      0.00000000	      0.00000000	      9.83261656	    -11.20701961	      5.36870695	     34.43850558	     45.43320926	      0.00000000	      0.00000000
